<svg xmlns="http://www.w3.org/2000/svg" xmlns:xlink="http://www.w3.org/1999/xlink" width="130" height="130" viewBox="0 0 130 130">
  <defs>
    <linearGradient id="linear-gradient" x1="0.205" y1="0.108" x2="0.877" y2="0.8" gradientUnits="objectBoundingBox">
      <stop offset="0" stop-color="#e0e7ff"/>
      <stop offset="1" stop-color="#d9f3ff"/>
    </linearGradient>
    <linearGradient id="linear-gradient-2" x1="0.5" x2="0.5" y2="1" gradientUnits="objectBoundingBox">
      <stop offset="0" stop-color="#91afea"/>
      <stop offset="1" stop-color="#81b2fe"/>
    </linearGradient>
    <filter id="路径_2_" x="19.093" y="30" width="52.901" height="44.365" filterUnits="userSpaceOnUse">
      <feOffset dy="3" input="SourceAlpha"/>
      <feGaussianBlur stdDeviation="3" result="blur"/>
      <feFlood flood-opacity="0.161"/>
      <feComposite operator="in" in2="blur"/>
      <feComposite in="SourceGraphic"/>
    </filter>
    <linearGradient id="linear-gradient-3" x1="0.824" y1="1" x2="0.308" gradientUnits="objectBoundingBox">
      <stop offset="0" stop-color="#b1d3ff"/>
      <stop offset="1" stop-color="#7ca1eb"/>
    </linearGradient>
    <filter id="椭圆_10175" x="57" y="57" width="54" height="54" filterUnits="userSpaceOnUse">
      <feOffset dy="3" input="SourceAlpha"/>
      <feGaussianBlur stdDeviation="3" result="blur-2"/>
      <feFlood flood-opacity="0.161"/>
      <feComposite operator="in" in2="blur-2"/>
      <feComposite in="SourceGraphic"/>
    </filter>
  </defs>
  <g id="组_10364" data-name="组 10364" transform="translate(-446 -2060)">
    <circle id="椭圆_10169" data-name="椭圆 10169" cx="65" cy="65" r="65" transform="translate(446 2060)" fill="url(#linear-gradient)"/>
    <g id="组_10339" data-name="组 10339" transform="translate(-3 10)">
      <g id="组_10323" data-name="组 10323" transform="translate(151.619 1722.929)">
        <g id="组_10319" data-name="组 10319" transform="translate(325.38 361.8)">
          <g id="组_10310" data-name="组 10310" transform="translate(15.59 3.19)">
            <g id="组_10309" data-name="组 10309" transform="translate(0 0.008)">
              <path id="path-20" d="M432.253,390.28h18.5l.778.041.744.115.714.184.687.254.664.323.618.375.576.432.538.49.488.537.432.578.377.618.322.662.254.687.184.714.115.745.042.778v11.3l-.042.778-.115.744-.184.714-.254.687-.322.664-.377.618-.432.576-.488.538-.538.488-.576.432-.618.377-.664.322-.687.254-.714.184-.744.115-.778.042h-18.5l-.78-.042-.744-.111-.714-.182-.687-.253-.664-.319-.618-.373-.576-.428-.537-.487-.49-.535-.432-.576-.377-.618-.322-.664-.254-.689-.184-.717-.115-.75-.041-.788v-11.3l.041-.778.115-.745.184-.714.254-.687.322-.662.377-.618.432-.578.49-.537.537-.49.576-.432.618-.375.664-.323.687-.254.714-.184.744-.115Z" transform="translate(-424.72 -389.009)" fill="#a1bef5"/>
            </g>
          </g>
          <g id="组_10312" data-name="组 10312" transform="translate(0 0)">
            <g transform="matrix(1, 0, 0, 1, -28, -34.73)" filter="url(#路径_2_)">
              <path id="路径_2_2" data-name="路径_2_" d="M332.76,369.9h19.868l.5.038.468.1.441.168.414.228.374.281.337.333.289.377.239.416.19.458,4.708,15.207.168.684.1.672.031.665-.036.661-.1.656-.157.632-.217.61-.276.592-.33.563-.38.523-.43.487-.483.452-.523.4-.567.345-.61.293-.661.24-.658.157-.673.094-.694.031H332.76l-.709-.038-.675-.1-.645-.163-.62-.228-.6-.287-.556-.336-.518-.386-.482-.438-.438-.482-.386-.518-.337-.557-.287-.6-.226-.618-.165-.647-.1-.675-.036-.708V376.68l.036-.708.1-.675.165-.647.226-.618.287-.6.337-.557.386-.518.438-.482.482-.438.518-.386.556-.336.6-.289.62-.226.645-.163.675-.1Z" transform="translate(-297.89 -333.9)" fill="url(#linear-gradient-2)"/>
            </g>
          </g>
          <g id="组_10314" data-name="组 10314" transform="translate(0 7.994)">
            <path id="矩形_2_" d="M332.913,420.84h52.071l.778.042.744.115.714.184.687.254.664.322.618.377.576.432.538.488.488.538.432.576.377.618.322.664.254.687.184.714.115.744.042.778v34.086l-.042.78-.115.744-.184.714-.254.687-.322.662-.377.618-.432.578-.488.537-.538.49-.576.432-.618.377-.664.322-.687.254-.714.184-.744.115-.778.041H332.913l-.78-.041-.744-.115-.714-.184-.687-.254-.664-.322-.618-.377-.576-.432-.537-.49-.49-.537-.432-.578-.377-.618-.322-.662-.254-.687-.184-.714-.115-.744-.041-.78V428.373l.041-.778.115-.744.184-.714.254-.687.322-.664.377-.618.432-.576.49-.538.537-.488.576-.432.618-.377.664-.322.687-.254.714-.184.744-.115Z" transform="translate(-325.38 -419.569)" fill="url(#linear-gradient-3)"/>
          </g>
          <g id="组_10316" data-name="组 10316" transform="translate(39.973 23.512)">
            <g id="组_10315" data-name="组 10315" transform="translate(0 1.271)">
              <path id="path-31" d="M567.293,519.72H607.3v14.407H567.293l-.752-.039-.717-.11-.686-.176-.659-.243-.634-.309-.592-.359-.551-.414-.512-.468-.466-.513-.41-.552-.358-.59-.3-.634-.242-.658-.174-.683-.108-.711-.039-.744.039-.742.108-.711.174-.683.242-.658.3-.634.358-.59.41-.552.466-.515.512-.468.551-.413.592-.359.634-.309.659-.243.686-.176.717-.11Z" transform="translate(-580.09 -519.72)" fill="#4177d7"/>
            </g>
            <path id="path-34" d="M587.293,511.62H627.3v14.407H587.293l-.752-.039-.717-.11-.686-.176-.659-.243-.634-.309-.592-.359-.551-.414-.512-.468-.466-.513-.41-.552-.358-.59-.3-.634-.242-.658-.174-.683-.108-.711-.039-.744.039-.742.108-.711.174-.683.242-.658.3-.634.358-.59.41-.552.466-.515.512-.468.551-.413.592-.359.634-.309.659-.243.686-.176.717-.11Z" transform="translate(-600.09 -511.861)" fill="#5383e6"/>
          </g>
          <g id="组_10318" data-name="组 10318" transform="translate(44.537 26.894)">
            <path id="椭圆形_10_" d="M616.8,542.384l-.036.524-.1.493-.163.468-.223.443-.271.4-.323.367-.366.322-.4.273-.443.221-.468.163-.493.1-.524.036-.524-.036-.493-.1-.468-.163-.443-.221-.4-.273-.366-.322-.323-.367-.272-.4-.223-.443-.163-.468-.1-.493-.036-.524.036-.523.1-.494.163-.468.223-.443.272-.4.323-.367.366-.323.4-.272.443-.223.468-.163.493-.1.524-.038.524.038.493.1.468.163.443.223.4.272.366.323.323.367.271.4.223.443.163.468.1.494Z" transform="translate(-629.17 -538.193)" fill="#fff"/>
          </g>
        </g>
      </g>
      <g id="组_10336" data-name="组 10336" transform="translate(3 2)">
        <g transform="matrix(1, 0, 0, 1, 446, 2048)" filter="url(#椭圆_10175)">
          <circle id="椭圆_10175-2" data-name="椭圆 10175" cx="18" cy="18" r="18" transform="translate(66 63)" fill="#26dcfa"/>
        </g>
        <path id="路径_19078" data-name="路径 19078" d="M240.048,324.6a1.7,1.7,0,0,1-1.206-.517l-5.6-5.6a1.705,1.705,0,1,1,2.412-2.412l4.393,4.393,10.423-10.423a1.705,1.705,0,0,1,2.412,2.412l-11.628,11.629a1.7,1.7,0,0,1-1.206.517Z" transform="translate(287.273 1811.473)" fill="#fff"/>
      </g>
    </g>
  </g>
</svg>
