<svg xmlns="http://www.w3.org/2000/svg" xmlns:xlink="http://www.w3.org/1999/xlink" width="165" height="140.995" viewBox="0 0 165 140.995">
  <defs>
    <linearGradient id="linear-gradient" x1="0.925" y1="0.988" x2="0.408" y2="1" gradientUnits="objectBoundingBox">
      <stop offset="0" stop-color="#dbe6fa"/>
      <stop offset="1" stop-color="#cddfff"/>
    </linearGradient>
    <linearGradient id="linear-gradient-3" x1="0.92" y1="0.988" x2="0.409" xlink:href="#linear-gradient"/>
    <linearGradient id="linear-gradient-4" x1="1.446" y1="0.67" x2="0.295" y2="0.674" gradientUnits="objectBoundingBox">
      <stop offset="0" stop-color="#f4f8ff"/>
      <stop offset="1" stop-color="#cddfff"/>
    </linearGradient>
    <linearGradient id="linear-gradient-5" x1="1.446" y1="0.644" x2="0.295" y2="0.648" xlink:href="#linear-gradient-4"/>
    <linearGradient id="linear-gradient-6" x1="0.5" y1="1" x2="0.5" y2="-0.269" gradientUnits="objectBoundingBox">
      <stop offset="0" stop-color="#2a47ab"/>
      <stop offset="1" stop-color="#266ef1"/>
    </linearGradient>
    <linearGradient id="linear-gradient-7" y1="0" y2="1.269" xlink:href="#linear-gradient-6"/>
    <linearGradient id="linear-gradient-8" y2="-0.112" xlink:href="#linear-gradient-6"/>
    <linearGradient id="linear-gradient-9" y2="0" xlink:href="#linear-gradient-6"/>
    <linearGradient id="linear-gradient-10" x1="0.173" y1="0.838" x2="0.724" y2="0.255" xlink:href="#linear-gradient-6"/>
    <linearGradient id="linear-gradient-11" x1="0.5" y1="1" x2="0.5" y2="-0.269" gradientUnits="objectBoundingBox">
      <stop offset="0" stop-color="#779ad1"/>
      <stop offset="1" stop-color="#c3d6fd"/>
    </linearGradient>
    <linearGradient id="linear-gradient-12" x1="0.5" y1="1" x2="0.5" y2="-0.112" gradientUnits="objectBoundingBox">
      <stop offset="0" stop-color="#3666b2"/>
      <stop offset="1" stop-color="#a2c1ff"/>
    </linearGradient>
    <linearGradient id="linear-gradient-13" x1="0.5" x2="0.5" y2="1.112" gradientUnits="objectBoundingBox">
      <stop offset="0" stop-color="#fff"/>
      <stop offset="1" stop-color="#e7eaf0"/>
    </linearGradient>
  </defs>
  <g id="加载中" transform="translate(-46 -66)">
    <path id="背景" d="M127.548,66a68.624,68.624,0,0,1,41.266,13.674H164.2a3.95,3.95,0,0,0-3.95,3.95h0v.3a3.95,3.95,0,0,0,3.95,3.95h13.728A67.559,67.559,0,0,1,185,96.922h6.517a4.254,4.254,0,0,1,4.254,4.254v.237a4.256,4.256,0,0,1-3.077,4.089h-6a4.862,4.862,0,0,0-4.862,4.862h0v1.519a4.862,4.862,0,0,0,4.862,4.862h20.633A4.864,4.864,0,0,1,211,121.462v.271a4.862,4.862,0,0,1-4.862,4.862h-10.69q.319,3.238.321,6.56c0,37.089-30.544,67.155-68.221,67.155a68.163,68.163,0,0,1-64.739-45.915h-2.56a1.874,1.874,0,0,1-.695-3.615h3.158a3.95,3.95,0,0,0,3.95-3.95h0v-.3a3.95,3.95,0,0,0-3.95-3.95h-2.72l-.007-.049H53.248a3.123,3.123,0,1,1,0-6.247H59.4q-.072-1.553-.073-3.124a66.031,66.031,0,0,1,6.1-27.8H54.508A8.508,8.508,0,0,1,46,96.847v-.475a8.509,8.509,0,0,1,8.018-8.494H92.492a3.039,3.039,0,0,0,0-6.077H83.586l.223-.184H79.379a5.773,5.773,0,0,1-5.773-5.773v-.322a5.774,5.774,0,0,1,5.773-5.773H105.02A69.094,69.094,0,0,1,127.548,66Z" fill="#e5eeff" fill-rule="evenodd" opacity="0.602"/>
    <g id="树" transform="translate(69.094 152.298)">
      <path id="路径" d="M17.635,13.184q.053.213.133.453l.107.426a1.494,1.494,0,0,1,.053.346,2.244,2.244,0,0,1-.4,1.318,2.344,2.344,0,0,1-1.04.839,4.6,4.6,0,0,1-.507.027,3.909,3.909,0,0,1-.48.027h-.507l-4.162.053v4.448q0,.985.04,1.984t.093,1.8q.053.959.133,1.838H7.257l.08-1.039q.027-.613.053-1.665t.027-2.81V17.152a1.5,1.5,0,0,1-1.014.4,1.43,1.43,0,0,1-.787-.213,1.657,1.657,0,0,1-.547-.586l-3.015-.16A2.746,2.746,0,0,1,.587,15.7,2.384,2.384,0,0,1,0,14.089,1.494,1.494,0,0,1,.027,13.8a1.516,1.516,0,0,1,.08-.266l.667-1.545a2.743,2.743,0,0,1,.333-1.092,3.241,3.241,0,0,1,.707-.879L6,2.264h.027a6.492,6.492,0,0,1,1.2-1.6A2.475,2.475,0,0,1,9.017,0a3.035,3.035,0,0,1,1.721.506,3.111,3.111,0,0,1,1.134,1.332l3.362,6.579a3.1,3.1,0,0,1,1.494,1.119,3.023,3.023,0,0,1,.587,1.838,3.384,3.384,0,0,1-.133.906Z" fill="url(#linear-gradient)"/>
      <path id="路径-2" data-name="路径" d="M327.635,13.184q.053.213.133.453l.107.426a1.5,1.5,0,0,1,.053.346,2.244,2.244,0,0,1-.4,1.318,2.343,2.343,0,0,1-1.04.839,4.6,4.6,0,0,1-.507.027,3.909,3.909,0,0,1-.48.027h-.507l-4.162.053v4.448q0,.985.04,1.984t.093,1.8q.053.959.133,1.838h-3.842l.08-1.039q.027-.613.053-1.665t.027-2.81V17.152a1.5,1.5,0,0,1-1.014.4,1.43,1.43,0,0,1-.787-.213,1.657,1.657,0,0,1-.547-.586l-3.015-.16a2.746,2.746,0,0,1-1.467-.892A2.384,2.384,0,0,1,310,14.089a1.484,1.484,0,0,1,.027-.293,1.505,1.505,0,0,1,.08-.266l.667-1.545a2.741,2.741,0,0,1,.334-1.092,3.239,3.239,0,0,1,.707-.879L316,2.264h.027a6.491,6.491,0,0,1,1.2-1.6A2.475,2.475,0,0,1,319.018,0a3.036,3.036,0,0,1,1.721.506,3.112,3.112,0,0,1,1.134,1.332l3.361,6.579a3.1,3.1,0,0,1,1.494,1.119,3.022,3.022,0,0,1,.587,1.838,3.39,3.39,0,0,1-.133.906Z" transform="translate(-215.801)" fill="url(#linear-gradient)"/>
      <path id="路径-3" data-name="路径" d="M299.749,29.337q.041.167.1.355l.083.334a1.183,1.183,0,0,1,.042.271,1.766,1.766,0,0,1-.312,1.034,1.829,1.829,0,0,1-.811.658,3.574,3.574,0,0,1-.4.021,3.024,3.024,0,0,1-.374.021h-.4l-3.245.042V35.56q0,.773.031,1.556t.073,1.41q.041.752.1,1.441h-3l.062-.814q.021-.48.042-1.305t.021-2.2v-3.2a1.163,1.163,0,0,1-.79.313,1.111,1.111,0,0,1-.614-.167,1.3,1.3,0,0,1-.426-.459l-2.35-.125a2.139,2.139,0,0,1-1.144-.7A1.875,1.875,0,0,1,286,30.047a1.194,1.194,0,0,1,.021-.23,1.212,1.212,0,0,1,.063-.209l.52-1.211a2.16,2.16,0,0,1,.26-.856,2.539,2.539,0,0,1,.551-.689l3.266-6.077h.021a5.086,5.086,0,0,1,.936-1.253A1.923,1.923,0,0,1,293.031,19a2.357,2.357,0,0,1,1.342.4,2.435,2.435,0,0,1,.884,1.044l2.621,5.158a2.416,2.416,0,0,1,1.165.877,2.379,2.379,0,0,1,.458,1.441,2.67,2.67,0,0,1-.1.71Z" transform="translate(-199.094 -13.227)" fill="url(#linear-gradient-3)"/>
    </g>
    <path id="形状结合" d="M137.268,415c18.651,0,35.447,1.521,47.187,3.952,11.482.076,20.727,3.516,20.727,7.747,0,3.354-5.807,6.21-13.933,7.289-1.939.574-4.122,1.115-6.52,1.617a5.044,5.044,0,0,1,.094.97c0,7.384-16.053,13.37-35.856,13.37-17.816,0-32.6-4.845-35.384-11.195C89.81,436.945,73,432.5,73,427.307,73,420.51,101.774,415,137.268,415Z" transform="translate(-18.796 -242.95)" fill="#e3edff" fill-rule="evenodd"/>
    <ellipse id="椭圆形" cx="10.483" cy="2.735" rx="10.483" ry="2.735" transform="translate(115.282 184.842)" fill="#cddfff"/>
    <path id="路径-4" data-name="路径" d="M400.563,143.3a3.55,3.55,0,0,1-3.824,3.247H384.913c-2.134-.144-3.913-1.516-3.913-3.392a3.315,3.315,0,0,1,1.956-2.887,1.773,1.773,0,0,1-.178-.649,2.516,2.516,0,0,1,2.668-2.309,2.916,2.916,0,0,1,1.6.505A6.3,6.3,0,0,1,392.382,135c3.2,0,5.78,2.237,5.78,4.979v.289A3.322,3.322,0,0,1,400.563,143.3Z" transform="translate(-233.204 -48.033)" fill="url(#linear-gradient-4)"/>
    <path id="路径-5" data-name="路径" d="M147.956,183.92c0,2.374-2.414,4.273-5.464,4.273h-16.9C122.542,188,120,186.2,120,183.73a4.373,4.373,0,0,1,2.8-3.8,2.2,2.2,0,0,1-.254-.855c0-1.614,1.652-3.039,3.812-3.039a4.415,4.415,0,0,1,2.287.665,9.224,9.224,0,0,1,7.624-3.7c4.575,0,8.26,2.944,8.26,6.552v.38C146.558,180.6,147.956,182.116,147.956,183.92Z" transform="translate(-51.514 -74.486)" fill="url(#linear-gradient-5)"/>
    <g id="火箭" transform="translate(99.573 91.525)">
      <path id="路径-2-2" data-name="路径-2" d="M10.533,103.33Q-.854,110.23.069,117.952A113.947,113.947,0,0,0,2.8,132.73q2.632,3.354,6.1.783t9.279-7.839Z" transform="translate(0 -71.931)" fill="url(#linear-gradient-6)"/>
      <path id="路径-2备份" d="M10.533,31.3Q-.854,24.4.069,16.676A113.945,113.945,0,0,1,2.8,1.9q2.632-3.354,6.1-.783t9.28,7.839Z" transform="translate(54.643 62.697) rotate(180)" fill="url(#linear-gradient-7)"/>
      <path id="路径-6" data-name="路径" d="M59.181,56.823C77.259,29.614,56.755,6.45,50.785.6A2.314,2.314,0,0,0,47.692.582c-6.063,5.752-26.826,28.559-8.409,56.241Z" transform="translate(-22.158 0)" fill="url(#linear-gradient-8)"/>
      <path id="路径-7" data-name="路径" d="M65.234.607a2.135,2.135,0,0,0-2.95-.03A55.432,55.432,0,0,0,52.7,13.37H74.575A59.5,59.5,0,0,0,65.234.607Z" transform="translate(-36.684 0)" fill="url(#linear-gradient-9)"/>
      <path id="路径-8" data-name="路径" d="M72.331,180.735q.95-1.374,1.763-2.735H50.7c.545.906,1.085,1.817,1.72,2.735Z" transform="translate(-35.291 -123.912)" fill="#afcfff"/>
      <path id="路径-9" data-name="路径" d="M15.4,22.159c-.521.325-.895.705-1.43.705a1.824,1.824,0,0,1-.666-.131A1.881,1.881,0,0,1,12,20.9c-.026-.562-.013-1.123-.026-1.685-.02-.666-.026-.908-.287-.908a2.773,2.773,0,0,0-.692.183Q7.947,19.5,4.907,20.513a2.914,2.914,0,0,1-.921.176,1.766,1.766,0,0,1-.862-.222,1.892,1.892,0,0,1-.849-2.422c.673-2.083,1.384-4.16,2.07-6.243.3-.9.281-.921-.692-.94-.588-.007-1.175,0-1.763-.026A1.875,1.875,0,0,1,.108,9.569c-.307-.79.1-1.324.464-2.057C2.419,3.758,7.056.874,7.535.548A2.207,2.207,0,0,1,8.717,0a.852.852,0,0,1,.131.006,1.915,1.915,0,0,1,1.965,1.515,16.663,16.663,0,0,0,7.875,9.344,16.621,16.621,0,0,0,2.638,1.156c1.652.562,1.358,2.841.8,3.4C20.737,17.863,19.95,19.317,15.4,22.159Z" transform="translate(10.93 66.935) rotate(-45)" fill="url(#linear-gradient-10)"/>
      <path id="矩形" d="M56.358,187H76.212v2.735H56.358Z" transform="translate(-39.233 -130.177)" fill="#2a47ab"/>
      <circle id="椭圆形-2" data-name="椭圆形" cx="9.116" cy="9.116" r="9.116" transform="translate(17.877 18.232)" fill="#ecf1ff"/>
      <circle id="椭圆形-3" data-name="椭圆形" cx="6.077" cy="6.077" r="6.077" transform="translate(20.915 21.271)" fill="url(#linear-gradient-11)"/>
      <path id="路径-10" data-name="路径" d="M80.2,150s-7.863,6.323-.045,22.79C88.066,156.5,80.2,150,80.2,150Z" transform="translate(-53.391 -104.42)" fill="url(#linear-gradient-12)"/>
    </g>
    <g id="编组" transform="translate(89.6 158.062)">
      <path id="三角形" d="M10.065,2.271l7.45,12.772a.608.608,0,0,1-.525.914H2.09a.608.608,0,0,1-.525-.914L9.015,2.271a.608.608,0,0,1,1.05,0Z" transform="translate(-1.482 -1.969)" fill="#cddfff"/>
      <rect id="矩形-2" data-name="矩形" width="1.823" height="19.448" transform="translate(7.146 10.949)" fill="#cddfff"/>
      <path id="形状" d="M.3,2.659a.481.481,0,0,1,.456-.38.481.481,0,0,1,.456.38l.3,4.178a.761.761,0,0,1-.76.76A.781.781,0,0,1,0,6.761ZM.76,1.519A.718.718,0,0,1,0,.76.718.718,0,0,1,.76,0a.718.718,0,0,1,.76.76A.718.718,0,0,1,.76,1.519Z" transform="translate(8.97 11.86) rotate(180)" fill="url(#linear-gradient-13)"/>
    </g>
  </g>
</svg>
